<svg xmlns="http://www.w3.org/2000/svg" version="1.1" xmlns:xlink="http://www.w3.org/1999/xlink" xmlns:svgjs="http://svgjs.dev/svgjs" width="1000" height="239" viewBox="0 0 1000 239"><g transform="matrix(1,0,0,1,-0.6060606060606233,0.11732428589210997)"><svg viewBox="0 0 396 95" data-background-color="#282634" preserveAspectRatio="xMidYMid meet" height="239" width="1000" xmlns="http://www.w3.org/2000/svg" xmlns:xlink="http://www.w3.org/1999/xlink"><defs></defs><g id="tight-bounds" transform="matrix(1,0,0,1,0.2400000000000091,-0.04663517640062764)"><svg viewBox="0 0 395.52 95.09327035280124" height="95.09327035280124" width="395.52"><g><svg viewBox="0 0 588.2771674020046 141.43709476673476" height="95.09327035280124" width="395.52"><g transform="matrix(1,0,0,1,0,19.547384298441635)"><svg viewBox="0 0 397.4975999999999 102.34232616985149" height="102.34232616985149" width="397.4975999999999"><g><svg viewBox="0 0 397.4975999999999 102.34232616985149" height="102.34232616985149" width="397.4975999999999"><g><rect width="397.4975999999999" height="4.1393666909327" x="0" y="50.77685294010145" fill="#ff4057" opacity="1" stroke-width="0" stroke="transparent" fill-opacity="1" class="rect-o-0" data-fill-palette-color="primary" rx="1%" id="o-0" data-palette-color="#ff4057"></rect></g><g transform="matrix(1,0,0,1,0.9887999999999693,0)"><svg viewBox="0 0 395.52 45.900635634028895" height="45.900635634028895" width="395.52"><g transform="matrix(1,0,0,1,0,0)"><svg width="395.52" viewBox="3.5999999046325684 -35.70000076293945 311.47998046875 36.150001525878906" height="45.900635634028895" data-palette-color="#ff4057"><path d="M21.1-13.7L32.45-35.25 38.5-35.25 38.5 0 31.65 0 31.65-20.9 23.55-5.8 18.55-5.8 10.45-20.7 10.45 0 3.6 0 3.6-35.25 9.75-35.25 21.1-13.7ZM63.2-13.7L74.55-35.25 80.6-35.25 80.6 0 73.75 0 73.75-20.9 65.65-5.8 60.65-5.8 52.55-20.7 52.55 0 45.7 0 45.7-35.25 51.85-35.25 63.2-13.7ZM122.3 0L114.6 0 111.25-7.8 94.85-7.8 91.5 0 83.65 0 99.85-35.25 106.1-35.25 122.3 0ZM103.05-26.9L97.4-13.7 108.7-13.7 103.05-26.9ZM146.89 0L139.19 0 139.19-35.25 162.99-35.25 162.99-29.1 146.89-29.1 146.89-21 161.99-21 161.99-14.85 146.89-14.85 146.89 0ZM175.59 0L167.79 0 167.79-35.25 175.59-35.25 175.59 0ZM198.99-19.45L212.89-19.45 212.89-2.2Q210.34-0.95 206.89-0.25 203.44 0.45 199.79 0.45L199.79 0.45Q194.19 0.45 190.09-1.73 185.99-3.9 183.78-7.98 181.59-12.05 181.59-17.65L181.59-17.65Q181.59-23.15 183.76-27.23 185.94-31.3 189.99-33.5 194.03-35.7 199.44-35.7L199.44-35.7Q203.24-35.7 206.51-34.65 209.79-33.6 211.94-31.75L211.94-31.75 209.49-26.2Q207.04-27.95 204.71-28.73 202.39-29.5 199.69-29.5L199.69-29.5Q189.49-29.5 189.49-17.65L189.49-17.65Q189.49-11.55 192.14-8.55 194.78-5.55 200.14-5.55L200.14-5.55Q203.04-5.55 205.89-6.3L205.89-6.3 205.89-14.05 198.99-14.05 198.99-19.45ZM243.38-21L243.38-35.25 251.03-35.25 251.03 0 243.38 0 243.38-14.8 227.13-14.8 227.13 0 219.48 0 219.48-35.25 227.13-35.25 227.13-21 243.38-21ZM273.98 0L266.18 0 266.18-28.9 255.13-28.9 255.13-35.25 285.03-35.25 285.03-28.9 273.98-28.9 273.98 0ZM300.48 0.45Q296.48 0.45 292.78-0.63 289.08-1.7 286.63-3.6L286.63-3.6 289.13-9.15Q294.23-5.6 300.58-5.6L300.58-5.6Q303.88-5.6 305.65-6.68 307.43-7.75 307.43-9.65L307.43-9.65Q307.43-11.35 305.8-12.3 304.18-13.25 300.03-14.15L300.03-14.15Q295.38-15.1 292.6-16.45 289.83-17.8 288.55-19.78 287.28-21.75 287.28-24.65L287.28-24.65Q287.28-27.85 289.05-30.35 290.83-32.85 294.03-34.27 297.23-35.7 301.43-35.7L301.43-35.7Q305.18-35.7 308.65-34.6 312.13-33.5 314.18-31.65L314.18-31.65 311.68-26.1Q306.83-29.65 301.48-29.65L301.48-29.65Q298.43-29.65 296.68-28.48 294.93-27.3 294.93-25.25L294.93-25.25Q294.93-24.05 295.6-23.28 296.28-22.5 297.85-21.9 299.43-21.3 302.33-20.65L302.33-20.65Q309.13-19.15 312.1-16.8 315.08-14.45 315.08-10.3L315.08-10.3Q315.08-5.3 311.23-2.43 307.38 0.45 300.48 0.45L300.48 0.45Z" opacity="1" transform="matrix(1,0,0,1,0,0)" fill="#ff4057" class="undefined-text-0" data-fill-palette-color="primary" id="text-0"></path></svg></g></svg></g><g transform="matrix(1,0,0,1,0,59.79243693710671)"><svg viewBox="0 0 395.52 42.54988923274479" height="42.54988923274479" width="395.52"><g transform="matrix(1,0,0,1,0,0)"><svg width="395.52" viewBox="2.5999999046325684 -40.5 466.1999816894531 50" height="42.54988923274479" data-palette-color="#dcdcdc"><path d="M9.4 0L2.6 0 2.6-28.9 9.4-28.9 9.4-26Q10.95-27.5 12.68-28.43 14.4-29.35 16.4-29.35L16.4-29.35Q18.2-29.35 19.25-28.48 20.3-27.6 20.8-26.15 21.3-24.7 21.3-23L21.3-23 21.3 0 14.5 0 14.5-21.65Q14.5-22.95 14.1-23.65 13.7-24.35 12.55-24.35L12.55-24.35Q11.85-24.35 11.03-23.95 10.2-23.55 9.4-22.95L9.4-22.95 9.4 0ZM37.53 0.45L37.53 0.45Q34.28 0.45 32.23-0.78 30.18-2 29.2-4.38 28.23-6.75 28.23-10.1L28.23-10.1 28.23-18.8Q28.23-22.25 29.2-24.6 30.18-26.95 32.25-28.15 34.33-29.35 37.53-29.35L37.53-29.35Q40.98-29.35 42.9-28.05 44.83-26.75 45.65-24.28 46.48-21.8 46.48-18.25L46.48-18.25 46.48-14.15 34.98-14.15 34.98-8.45Q34.98-7.05 35.25-6.15 35.53-5.25 36.13-4.85 36.73-4.45 37.58-4.45L37.58-4.45Q38.48-4.45 39.03-4.88 39.58-5.3 39.83-6.13 40.08-6.95 40.08-8.2L40.08-8.2 40.08-10.6 46.43-10.6 46.43-8.65Q46.43-4.25 44.23-1.9 42.03 0.45 37.53 0.45ZM34.98-19.5L34.98-17.5 40.08-17.5 40.08-20.25Q40.08-21.75 39.83-22.68 39.58-23.6 39.03-24.03 38.48-24.45 37.48-24.45L37.48-24.45Q36.58-24.45 36.03-24 35.48-23.55 35.23-22.5 34.98-21.45 34.98-19.5L34.98-19.5ZM62.51 0L56.61 0 52.16-28.9 57.81-28.9 60.36-10.15 63.36-28.9 68.41-28.9 71.26-9.95 74.01-28.9 79.36-28.9 74.81 0 69.06 0 65.86-18.25 62.51 0ZM93.54 0.45L93.54 0.45Q89.89 0.45 87.54-1.5 85.19-3.45 84.19-7.2L84.19-7.2 89.24-9.15Q89.84-6.8 90.84-5.55 91.84-4.3 93.44-4.3L93.44-4.3Q94.64-4.3 95.24-4.9 95.84-5.5 95.84-6.55L95.84-6.55Q95.84-7.75 95.11-8.72 94.39-9.7 92.64-11.15L92.64-11.15 89.14-14.1Q87.24-15.75 86.06-17.48 84.89-19.2 84.89-21.8L84.89-21.8Q84.89-24.15 85.96-25.83 87.04-27.5 88.91-28.43 90.79-29.35 93.09-29.35L93.09-29.35Q96.59-29.35 98.71-27.28 100.84-25.2 101.44-21.85L101.44-21.85 96.99-19.95Q96.74-21.15 96.26-22.18 95.79-23.2 95.04-23.85 94.29-24.5 93.29-24.5L93.29-24.5Q92.24-24.5 91.61-23.85 90.99-23.2 90.99-22.2L90.99-22.2Q90.99-21.35 91.71-20.45 92.44-19.55 93.79-18.4L93.79-18.4 97.34-15.2Q98.49-14.2 99.54-13.05 100.59-11.9 101.29-10.48 101.99-9.05 101.99-7.2L101.99-7.2Q101.99-4.7 100.86-3 99.74-1.3 97.81-0.43 95.89 0.45 93.54 0.45ZM108.71 6.8L108.71 6.8 108.01 4.3Q109.36 3.9 110.31 2.88 111.26 1.85 111.26 0L111.26 0 107.66 0 107.66-6.75 114.31-6.75 114.31-0.6Q114.31 2.6 112.91 4.42 111.51 6.25 108.71 6.8ZM144.67 0.45L144.67 0.45Q141.42 0.45 139.37-0.78 137.32-2 136.35-4.38 135.37-6.75 135.37-10.1L135.37-10.1 135.37-18.8Q135.37-22.25 136.35-24.6 137.32-26.95 139.4-28.15 141.47-29.35 144.67-29.35L144.67-29.35Q148.12-29.35 150.05-28.05 151.97-26.75 152.8-24.28 153.62-21.8 153.62-18.25L153.62-18.25 153.62-14.15 142.12-14.15 142.12-8.45Q142.12-7.05 142.4-6.15 142.67-5.25 143.27-4.85 143.87-4.45 144.72-4.45L144.72-4.45Q145.62-4.45 146.17-4.88 146.72-5.3 146.97-6.13 147.22-6.95 147.22-8.2L147.22-8.2 147.22-10.6 153.57-10.6 153.57-8.65Q153.57-4.25 151.37-1.9 149.17 0.45 144.67 0.45ZM142.12-19.5L142.12-17.5 147.22-17.5 147.22-20.25Q147.22-21.75 146.97-22.68 146.72-23.6 146.17-24.03 145.62-24.45 144.62-24.45L144.62-24.45Q143.72-24.45 143.17-24 142.62-23.55 142.37-22.5 142.12-21.45 142.12-19.5L142.12-19.5ZM172 0L164.45 0 158.7-28.9 165.35-28.9 168.3-8.15 171.2-28.9 177.75-28.9 172 0ZM192.13 0.45L192.13 0.45Q188.88 0.45 186.83-0.78 184.78-2 183.8-4.38 182.83-6.75 182.83-10.1L182.83-10.1 182.83-18.8Q182.83-22.25 183.8-24.6 184.78-26.95 186.85-28.15 188.93-29.35 192.13-29.35L192.13-29.35Q195.58-29.35 197.5-28.05 199.43-26.75 200.25-24.28 201.08-21.8 201.08-18.25L201.08-18.25 201.08-14.15 189.58-14.15 189.58-8.45Q189.58-7.05 189.85-6.15 190.13-5.25 190.73-4.85 191.33-4.45 192.18-4.45L192.18-4.45Q193.08-4.45 193.63-4.88 194.18-5.3 194.43-6.13 194.68-6.95 194.68-8.2L194.68-8.2 194.68-10.6 201.03-10.6 201.03-8.65Q201.03-4.25 198.83-1.9 196.63 0.45 192.13 0.45ZM189.58-19.5L189.58-17.5 194.68-17.5 194.68-20.25Q194.68-21.75 194.43-22.68 194.18-23.6 193.63-24.03 193.08-24.45 192.08-24.45L192.08-24.45Q191.18-24.45 190.63-24 190.08-23.55 189.83-22.5 189.58-21.45 189.58-19.5L189.58-19.5ZM214.96 0L208.16 0 208.16-28.9 214.96-28.9 214.96-26Q216.51-27.5 218.23-28.43 219.96-29.35 221.96-29.35L221.96-29.35Q223.76-29.35 224.81-28.48 225.86-27.6 226.36-26.15 226.86-24.7 226.86-23L226.86-23 226.86 0 220.06 0 220.06-21.65Q220.06-22.95 219.66-23.65 219.26-24.35 218.11-24.35L218.11-24.35Q217.41-24.35 216.58-23.95 215.76-23.55 214.96-22.95L214.96-22.95 214.96 0ZM242.68 0.35L242.68 0.35Q239.93 0.35 238.36-0.55 236.78-1.45 236.13-3.15 235.48-4.85 235.48-7.2L235.48-7.2 235.48-24.4 232.58-24.4 232.58-28.9 235.48-28.9 235.48-37.55 242.33-37.55 242.33-28.9 246.73-28.9 246.73-24.4 242.33-24.4 242.33-7.8Q242.33-6.3 242.98-5.68 243.63-5.05 244.93-5.05L244.93-5.05Q245.48-5.05 246.01-5.1 246.53-5.15 247.03-5.2L247.03-5.2 247.03 0Q246.18 0.1 245.06 0.23 243.93 0.35 242.68 0.35ZM261.26 0.45L261.26 0.45Q257.61 0.45 255.26-1.5 252.91-3.45 251.91-7.2L251.91-7.2 256.96-9.15Q257.56-6.8 258.56-5.55 259.56-4.3 261.16-4.3L261.16-4.3Q262.36-4.3 262.96-4.9 263.56-5.5 263.56-6.55L263.56-6.55Q263.56-7.75 262.84-8.72 262.11-9.7 260.36-11.15L260.36-11.15 256.86-14.1Q254.96-15.75 253.79-17.48 252.61-19.2 252.61-21.8L252.61-21.8Q252.61-24.15 253.69-25.83 254.76-27.5 256.64-28.43 258.51-29.35 260.81-29.35L260.81-29.35Q264.31-29.35 266.44-27.28 268.56-25.2 269.16-21.85L269.16-21.85 264.71-19.95Q264.46-21.15 263.99-22.18 263.51-23.2 262.76-23.85 262.01-24.5 261.01-24.5L261.01-24.5Q259.96-24.5 259.34-23.85 258.71-23.2 258.71-22.2L258.71-22.2Q258.71-21.35 259.44-20.45 260.16-19.55 261.51-18.4L261.51-18.4 265.06-15.2Q266.21-14.2 267.26-13.05 268.31-11.9 269.01-10.48 269.71-9.05 269.71-7.2L269.71-7.2Q269.71-4.7 268.59-3 267.46-1.3 265.54-0.43 263.61 0.45 261.26 0.45ZM276.44 6.8L276.44 6.8 275.74 4.3Q277.09 3.9 278.04 2.88 278.99 1.85 278.99 0L278.99 0 275.39 0 275.39-6.75 282.04-6.75 282.04-0.6Q282.04 2.6 280.64 4.42 279.24 6.25 276.44 6.8ZM311.85 0L305.05 0 305.05-24.15 301.95-24.15 301.95-28.9 305.05-28.9 305.05-30.75Q305.05-33.35 305.52-35.27 306-37.2 307.52-38.25 309.05-39.3 312.15-39.3L312.15-39.3Q313.1-39.3 313.95-39.23 314.8-39.15 315.85-39L315.85-39 315.85-33.95Q315.45-34.05 314.92-34.13 314.4-34.2 313.95-34.2L313.95-34.2Q312.75-34.2 312.3-33.45 311.85-32.7 311.85-31.25L311.85-31.25 311.85-28.9 315.85-28.9 315.85-24.15 311.85-24.15 311.85 0ZM328.33 0L321.53 0 321.53-28.9 328.33-28.9 328.33 0ZM328.33-33.5L321.53-33.5 321.53-39.15 328.33-39.15 328.33-33.5ZM344.71 9.5L344.71 9.5Q341.76 9.5 339.51 8.9 337.26 8.3 336.01 7.05 334.76 5.8 334.76 3.8L334.76 3.8Q334.76 2.45 335.33 1.38 335.91 0.3 336.91-0.5 337.91-1.3 339.06-1.85L339.06-1.85Q337.41-2.3 336.53-3.3 335.66-4.3 335.66-5.7L335.66-5.7Q335.66-7.4 336.51-8.6 337.36-9.8 338.86-11.15L338.86-11.15Q337.31-12.4 336.53-14.28 335.76-16.15 335.76-19.2L335.76-19.2Q335.76-22.5 336.83-24.78 337.91-27.05 339.98-28.2 342.06-29.35 345.06-29.35L345.06-29.35Q347.36-29.35 348.91-28.68 350.46-28 351.46-26.65L351.46-26.65Q351.86-27.25 352.86-28.15 353.86-29.05 355.16-29.65L355.16-29.65 356.06-30.05 357.71-26.4Q357.16-26.25 356.23-25.9 355.31-25.55 354.41-25.15 353.51-24.75 353.01-24.45L353.01-24.45Q353.46-23.45 353.76-21.95 354.06-20.45 354.06-19.1L354.06-19.1Q354.06-16.05 353.11-13.8 352.16-11.55 350.18-10.33 348.21-9.1 345.06-9.1L345.06-9.1Q344.01-9.1 343.01-9.28 342.01-9.45 341.16-9.7L341.16-9.7Q340.86-9.25 340.58-8.75 340.31-8.25 340.31-7.7L340.31-7.7Q340.31-7.15 340.91-6.8 341.51-6.45 342.91-6.3L342.91-6.3 349.01-5.7Q352.56-5.35 354.26-3.48 355.96-1.6 355.96 1.6L355.96 1.6Q355.96 4.2 354.78 5.95 353.61 7.7 351.13 8.6 348.66 9.5 344.71 9.5ZM345.46 4.4L345.46 4.4Q348.26 4.4 349.66 3.85 351.06 3.3 351.06 1.85L351.06 1.85Q351.06 1.05 350.71 0.55 350.36 0.05 349.46-0.28 348.56-0.6 346.91-0.75L346.91-0.75 341.96-1.2Q341.41-0.75 340.98-0.28 340.56 0.2 340.31 0.75 340.06 1.3 340.06 1.9L340.06 1.9Q340.06 3.15 341.26 3.78 342.46 4.4 345.46 4.4ZM345.06-13.45L345.06-13.45Q345.96-13.45 346.51-13.78 347.06-14.1 347.36-14.83 347.66-15.55 347.76-16.65 347.86-17.75 347.86-19.2L347.86-19.2Q347.86-20.65 347.76-21.75 347.66-22.85 347.38-23.6 347.11-24.35 346.56-24.7 346.01-25.05 345.06-25.05L345.06-25.05Q344.16-25.05 343.58-24.7 343.01-24.35 342.73-23.63 342.46-22.9 342.33-21.8 342.21-20.7 342.21-19.2L342.21-19.2Q342.21-17.8 342.31-16.73 342.41-15.65 342.71-14.93 343.01-14.2 343.58-13.83 344.16-13.45 345.06-13.45ZM369.03 0L362.23 0 362.23-40.5 369.03-40.5 369.03-26.15Q370.53-27.65 372.31-28.5 374.08-29.35 376.18-29.35L376.18-29.35Q377.93-29.35 378.98-28.48 380.03-27.6 380.53-26.15 381.03-24.7 381.03-23L381.03-23 381.03 0 374.23 0 374.23-21.65Q374.23-22.95 373.83-23.65 373.43-24.35 372.28-24.35L372.28-24.35Q371.58-24.35 370.71-23.95 369.83-23.55 369.03-22.9L369.03-22.9 369.03 0ZM396.86 0.35L396.86 0.35Q394.11 0.35 392.54-0.55 390.96-1.45 390.31-3.15 389.66-4.85 389.66-7.2L389.66-7.2 389.66-24.4 386.76-24.4 386.76-28.9 389.66-28.9 389.66-37.55 396.51-37.55 396.51-28.9 400.91-28.9 400.91-24.4 396.51-24.4 396.51-7.8Q396.51-6.3 397.16-5.68 397.81-5.05 399.11-5.05L399.11-5.05Q399.66-5.05 400.19-5.1 400.71-5.15 401.21-5.2L401.21-5.2 401.21 0Q400.36 0.1 399.24 0.23 398.11 0.35 396.86 0.35ZM416.34 0.45L416.34 0.45Q413.09 0.45 411.04-0.78 408.99-2 408.02-4.38 407.04-6.75 407.04-10.1L407.04-10.1 407.04-18.8Q407.04-22.25 408.02-24.6 408.99-26.95 411.07-28.15 413.14-29.35 416.34-29.35L416.34-29.35Q419.79-29.35 421.72-28.05 423.64-26.75 424.47-24.28 425.29-21.8 425.29-18.25L425.29-18.25 425.29-14.15 413.79-14.15 413.79-8.45Q413.79-7.05 414.07-6.15 414.34-5.25 414.94-4.85 415.54-4.45 416.39-4.45L416.39-4.45Q417.29-4.45 417.84-4.88 418.39-5.3 418.64-6.13 418.89-6.95 418.89-8.2L418.89-8.2 418.89-10.6 425.24-10.6 425.24-8.65Q425.24-4.25 423.04-1.9 420.84 0.45 416.34 0.45ZM413.79-19.5L413.79-17.5 418.89-17.5 418.89-20.25Q418.89-21.75 418.64-22.68 418.39-23.6 417.84-24.03 417.29-24.45 416.29-24.45L416.29-24.45Q415.39-24.45 414.84-24 414.29-23.55 414.04-22.5 413.79-21.45 413.79-19.5L413.79-19.5ZM439.32 0L432.52 0 432.52-28.9 439.32-28.9 439.32-24.45Q440.82-27 442.32-28.13 443.82-29.25 445.62-29.25L445.62-29.25Q445.92-29.25 446.14-29.23 446.37-29.2 446.67-29.15L446.67-29.15 446.67-22.1Q446.07-22.35 445.34-22.53 444.62-22.7 443.87-22.7L443.87-22.7Q442.52-22.7 441.42-22.05 440.32-21.4 439.32-19.9L439.32-19.9 439.32 0ZM460.35 0.45L460.35 0.45Q456.7 0.45 454.35-1.5 452-3.45 451-7.2L451-7.2 456.05-9.15Q456.65-6.8 457.65-5.55 458.65-4.3 460.25-4.3L460.25-4.3Q461.45-4.3 462.05-4.9 462.65-5.5 462.65-6.55L462.65-6.55Q462.65-7.75 461.92-8.72 461.2-9.7 459.45-11.15L459.45-11.15 455.95-14.1Q454.05-15.75 452.87-17.48 451.7-19.2 451.7-21.8L451.7-21.8Q451.7-24.15 452.77-25.83 453.85-27.5 455.72-28.43 457.6-29.35 459.9-29.35L459.9-29.35Q463.4-29.35 465.52-27.28 467.65-25.2 468.25-21.85L468.25-21.85 463.8-19.95Q463.55-21.15 463.07-22.18 462.6-23.2 461.85-23.85 461.1-24.5 460.1-24.5L460.1-24.5Q459.05-24.5 458.42-23.85 457.8-23.2 457.8-22.2L457.8-22.2Q457.8-21.35 458.52-20.45 459.25-19.55 460.6-18.4L460.6-18.4 464.15-15.2Q465.3-14.2 466.35-13.05 467.4-11.9 468.1-10.48 468.8-9.05 468.8-7.2L468.8-7.2Q468.8-4.7 467.67-3 466.55-1.3 464.62-0.43 462.7 0.45 460.35 0.45Z" opacity="1" transform="matrix(1,0,0,1,0,0)" fill="#dcdcdc" class="undefined-text-1" data-fill-palette-color="secondary" id="text-1"></path></svg></g></svg></g></svg></g></svg></g><g transform="matrix(1,0,0,1,408.33363845793895,0)"><svg viewBox="0 0 179.9435289440657 141.43709476673476" height="141.43709476673476" width="179.9435289440657"><g><svg xmlns="http://www.w3.org/2000/svg" xmlns:xlink="http://www.w3.org/1999/xlink" xml:space="preserve" version="1.1" style="shape-rendering:geometricPrecision;text-rendering:geometricPrecision;image-rendering:optimizeQuality;" viewBox="0 36 243 191" x="0" y="0" fill-rule="evenodd" clip-rule="evenodd" width="179.9435289440657" height="141.43709476673476" class="icon-icon-0" data-fill-palette-color="accent" id="icon-0"><g fill="#dcdcdc" data-fill-palette-color="accent"><path class="" d="M18 108l-18 33 8 36 15-3-7-30 10-19 22 43 25 32-33 6 3 19 56-10 1-12-25-32 34 17 40 39c4-4 9-9 13-14l-41-41-47-23-7-14 12-22-13-8-8 14-12-25-28 14z" fill="#dcdcdc" fill-rule="nonzero" data-fill-palette-color="accent"></path><polygon class="" points="225,50 243,83 218,104 208,93 224,81 216,67 195,110 170,142 203,148 199,167 143,157 142,145 168,113 118,95 63,91 65,72 119,76 169,91 175,79 158,82 155,68 184,61 197,36 " fill="#dcdcdc" fill-rule="nonzero" data-fill-palette-color="accent"></polygon></g></svg></g></svg></g></svg></g></svg><rect width="395.52" height="95.09327035280124" fill="none" stroke="none" visibility="hidden"></rect></g></svg></g></svg>